<svg id="Layer_1" data-name="Layer 1" xmlns="http://www.w3.org/2000/svg" xmlns:xlink="http://www.w3.org/1999/xlink" viewBox="0 0 3904.85 999.47"><defs><clipPath id="clip-path"><circle cx="499.73" cy="499.73" r="499.73" style="fill:none"/></clipPath></defs><g style="clip-path:url(#clip-path)"><polyline points="600 304.74 600 -45.27 1600 454.74 1600 804.74" style="fill:#fff"/><polyline points="0 424.74 0 74.73 1000 574.74 1000 924.74" style="fill:#fff"/><polyline points="-600 544.74 -600 194.74 400 694.74 400 1044.73" style="fill:#fff"/></g><path d="M1664.07,223.66v560h-65.6l-336-417.6v417.6h-80v-560h65.6l336,417.6V223.66Z" style="fill:#fff"/><path d="M2238.46,714.06v69.6h-406.4v-560h395.21v69.61H1912.06v172h280.81v68H1912.06v180.8Z" style="fill:#fff"/><path d="M2713.67,783.66l-168-231.2-165.6,231.2h-92l210.4-287.2-197.6-272.8h91.2l156.8,215.21,155.2-215.21h87.2l-197.6,270.4,212,289.6Z" style="fill:#fff"/><path d="M2949.66,726.06q-62.4-64-62.4-184V223.66h80V538.87q0,180,157.6,180,76.8,0,117.6-44.41t40.8-135.59V223.66h77.6v318.4q0,120.81-62.4,184.4t-174.4,63.6Q3012.06,790.06,2949.66,726.06Z" style="fill:#fff"/><path d="M3566.05,770.46q-58.8-19.59-92.4-50.8l29.6-62.4q32,28.8,82,46.8a301.27,301.27,0,0,0,102.8,18q69.6,0,104-23.6t34.4-62.8q0-28.8-18.8-46.79t-46.4-27.61q-27.6-9.59-78-21.6-63.21-15.18-102-30.4a168.35,168.35,0,0,1-66.4-46.8q-27.6-31.59-27.6-85.19,0-44.81,23.6-80.81t71.6-57.59q48-21.62,119.2-21.6a377.8,377.8,0,0,1,97.6,12.79q48,12.81,82.4,36.81l-26.4,64a289.78,289.78,0,0,0-75.2-34,280.81,280.81,0,0,0-78.4-11.6q-68,0-102,24.79t-34,64q0,28.82,19.2,46.81t47.6,28q28.4,10,77.2,21.19,63.2,15.21,101.6,30.4a171,171,0,0,1,66,46.41q27.6,31.18,27.6,84a143,143,0,0,1-24,80.39q-24,36.42-72.8,57.61t-120,21.19A382.85,382.85,0,0,1,3566.05,770.46Z" style="fill:#fff"/></svg>