<svg id="Layer_1" data-name="Layer 1" xmlns="http://www.w3.org/2000/svg" xmlns:xlink="http://www.w3.org/1999/xlink" viewBox="0 0 4000 1000"><defs><clipPath id="clip-path"><circle cx="499.73" cy="500.12" r="499.73" style="fill:none"/></clipPath></defs><g style="clip-path:url(#clip-path)"><polyline points="600 305.12 600 -44.88 1600 455.12 1600 805.12" style="fill:#fff"/><polyline points="0 425.12 0 75.12 1000 575.12 1000 925.12" style="fill:#fff"/><polyline points="-600 545.12 -600 195.12 400 695.12 400 1045.12" style="fill:#fff"/></g><path d="M1664.07,224.05v560h-65.6l-336-417.6v417.6h-80v-560h65.6l336,417.6V224.05Z" style="fill:#fff"/><path d="M2238.46,714.45v69.6h-406.4v-560h395.21v69.6H1912.06v172h280.81v68H1912.06v180.8Z" style="fill:#fff"/><path d="M2713.67,784.05l-168-231.2-165.6,231.2h-92l210.4-287.2-197.6-272.8h91.2l156.8,215.2,155.2-215.2h87.2l-197.6,270.4,212,289.6Z" style="fill:#fff"/><path d="M2949.66,726.45q-62.4-64-62.4-184V224.05h80v315.2q0,180,157.6,180,76.8,0,117.6-44.4t40.8-135.6V224.05h77.6v318.4q0,120.81-62.4,184.4t-174.4,63.6Q3012.06,790.45,2949.66,726.45Z" style="fill:#fff"/><path d="M3566.05,770.85q-58.8-19.59-92.4-50.8l29.6-62.4q32,28.8,82,46.8a301.27,301.27,0,0,0,102.8,18q69.6,0,104-23.6t34.4-62.8q0-28.8-18.8-46.8t-46.4-27.6q-27.6-9.6-78-21.6-63.21-15.19-102-30.4a168.56,168.56,0,0,1-66.4-46.8q-27.6-31.59-27.6-85.2,0-44.79,23.6-80.8t71.6-57.6q48-21.6,119.2-21.6a377.38,377.38,0,0,1,97.6,12.8q48,12.81,82.4,36.8l-26.4,64a290.11,290.11,0,0,0-75.2-34,280.81,280.81,0,0,0-78.4-11.6q-68,0-102,24.8t-34,64q0,28.8,19.2,46.8t47.6,28q28.4,10,77.2,21.2,63.2,15.21,101.6,30.4a171.1,171.1,0,0,1,66,46.4q27.6,31.2,27.6,84a143,143,0,0,1-24,80.4q-24,36.4-72.8,57.6t-120,21.2A383.13,383.13,0,0,1,3566.05,770.85Z" style="fill:#fff"/></svg>